# xmcd
#
# Track frame offsets: 
#        150
#        9709
#        24286
#        37141
#        51049
#        63721
#        78276
#        89951
#        100612
#        117527
#        125591
#        138200
#        150338
#        163379
#
# Disc length: 2289 seconds
#
# Revision: 2
# Processed by: cddbd v1.5.2PL0 Copyright (c) Steve Scherf et al.
# Submitted via: ExactAudioCopy v0.99pb4
#
DISCID=bc08ef0e
DTITLE=Gore Gore Girls - Get The Gore
DYEAR=2007
DGENRE=Country
TTITLE0=Fox In A Box
TTITLE1=Loaded Heart
TTITLE2=All Grown Up
TTITLE3=Pleasure Unit
TTITLE4=Where Evil Grows
TTITLE5=Casino
TTITLE6=Don't Cry
TTITLE7=Mary Ann
TTITLE8=You Lied To Me Before
TTITLE9=So Sophisticated
TTITLE10=Little Baby
TTITLE11=Sweet Potato
TTITLE12=Voodoo Doll
TTITLE13=Hammer Stomp
EXTD=
EXTT0=
EXTT1=
EXTT2=
EXTT3=
EXTT4=
EXTT5=
EXTT6=
EXTT7=
EXTT8=
EXTT9=
EXTT10=
EXTT11=
EXTT12=
EXTT13=
PLAYORDER=
